<svg width="20" height="20" viewBox="0 0 20 20" fill="none" xmlns="http://www.w3.org/2000/svg">
<path d="M0.600006 2.60001H7.60001M7.60001 2.60001C7.60001 3.70458 8.49544 4.60001 9.60001 4.60001C10.7046 4.60001 11.6 3.70458 11.6 2.60001M7.60001 2.60001C7.60001 1.49544 8.49544 0.600006 9.60001 0.600006C10.7046 0.600006 11.6 1.49544 11.6 2.60001M0.600006 9.60001H9.60001M16.6 9.60001H18.6M16.6 9.60001C16.6 10.7046 15.7046 11.6 14.6 11.6C13.4954 11.6 12.6 10.7046 12.6 9.60001C12.6 8.49544 13.4954 7.60001 14.6 7.60001C15.7046 7.60001 16.6 8.49544 16.6 9.60001ZM11.6 2.60001H18.6M9.60001 16.6H18.6M0.600006 16.6H2.60001M2.60001 16.6C2.60001 17.7046 3.49544 18.6 4.60001 18.6C5.70458 18.6 6.60001 17.7046 6.60001 16.6C6.60001 15.4954 5.70458 14.6 4.60001 14.6C3.49544 14.6 2.60001 15.4954 2.60001 16.6Z" stroke="white" stroke-width="1.2" stroke-linecap="round"/>
</svg>
